<svg xmlns="http://www.w3.org/2000/svg" viewBox="0 0 76.01 54.16"><defs><style>.cls-1{fill:#0f0f0f;}</style></defs><title>RH_Sign</title><g id="Layer_2" data-name="Layer 2"><g id="Layer_1-2" data-name="Layer 1"><path class="cls-1" d="M75.82,4.28a7.07,7.07,0,0,1-2,3.4C70.08,10.6,66.21,13.36,62.28,16c-3.07,2.1-6.24,4-9.44,5.94C47.92,24.9,42.92,27.68,38,30.6a17.39,17.39,0,0,0-4.57,3.31c-.7.84-.69,2.59-.47,3.83a79,79,0,0,0,2.24,9.38c.84,2.75,2.6,3.38,5.37,1.9A121.86,121.86,0,0,0,53,40.44c.4-.36,1.82,0,2.41.41.34.27.24,1.64-.14,2.19a36.83,36.83,0,0,1-5.43,4.78c-2.65,1.8-5.14,4-8,5.29-5.34,2.45-10.13-1.58-11-6.66-.46-2.55-.86-5.11-1.33-7.66-.06-.31-.35-.58-.85-1.36C27.39,38.72,26,39.7,25.36,41c-1.8,3.63-3.25,7.42-5,11.09a9.18,9.18,0,0,1-1.87,2c-.66-.91-2-2-1.84-2.69.69-2.66,1.91-5.19,2.86-7.8a4,4,0,0,0,.4-2.4c-.79-2.06.29-3.14,1.69-4.27a6.81,6.81,0,0,0,2.08-2.34c2.43-5.55,4.72-11.16,7.09-16.75.61-1.44,1.55-1.53,2.56-.39A13.91,13.91,0,0,1,35,19.72c.59,1,.87,1.81-.82,2.32S32.35,24.16,33,25.9c.6-1,1.21-2,1.82-3.08h.65c.18,1.54.37,3.08.56,4.68,7.58-4.7,15.34-9.44,23-14.3,3.32-2.09,6.52-4.37,9.72-6.65A15.87,15.87,0,0,0,71.23,4c.18-.2.12-.6.16-.91A2.54,2.54,0,0,0,70.5,3c-1.34.33-2.64.81-4,1-2.61.45-5.27.69-7.87,1.18a35.6,35.6,0,0,0-4.35,1.31C50.87,7.67,47.35,8.59,44.05,10c-5.2,2.27-10.25,4.9-15.37,7.36-2.44,1.18-5.37,1.81-7.23,3.57C18,24.26,13.1,25.15,9.81,28.74c-2,2.15-4.91,3.44-7.48,5A1.77,1.77,0,0,1,.64,33.5a2.6,2.6,0,0,1-.61-2c.16-.67.87-1.22,1.38-1.79a20.22,20.22,0,0,0,2.41-2.59C5.15,25,6.31,24.62,8.93,24.7c1.08,0,2.22-1,3.29-1.65,1.93-1.14,3.78-2.43,5.75-3.5,4.88-2.66,9.69-5.53,14.78-7.71,3.08-1.32,5.83-3.41,9.44-3.79,2.35-.24,4.56-1.86,6.84-2.83a14.08,14.08,0,0,1,1.57-.45c2.53-.71,5-1.46,7.59-2.12,2-.5,3.93-.92,5.91-1.31C65.4,1.09,66.73,1,68,.77l.19.58L69.81,0c0,.21,0,.41,0,.62A21.44,21.44,0,0,0,73.4.88C75.32.71,76.49,2.09,75.82,4.28Z"/></g></g></svg>